<?xml version="1.0" encoding="utf-8"?>
<!-- Generator: Adobe Illustrator 17.0.0, SVG Export Plug-In . SVG Version: 6.00 Build 0)  -->
<!DOCTYPE svg PUBLIC "-//W3C//DTD SVG 1.1//EN" "http://www.w3.org/Graphics/SVG/1.1/DTD/svg11.dtd">
<svg version="1.1" id="Livello_1" xmlns="http://www.w3.org/2000/svg" xmlns:xlink="http://www.w3.org/1999/xlink" x="0px" y="0px"
	 width="285.078px" height="92.937px" viewBox="0 0 285.078 92.937" enable-background="new 0 0 285.078 92.937"
	 xml:space="preserve">
<g>
	<path fill="none" stroke="#ED1C50" stroke-width="3" stroke-miterlimit="10" d="M388.153-103.267"/>
</g>
<g>
	<g>
		<g>
			<g>
				<path fill="#FFDD77" d="M37.824,29.226c2.359-1.262,5.055-2.06,7.571-2.566c-2.292-2.56-5.621-4.172-9.327-4.172
					c-6.913,0-12.517,5.604-12.517,12.517c0,2.332,0.639,4.513,1.75,6.382C27.918,35.632,32.962,31.826,37.824,29.226z"/>
				<path fill="#FFDD77" d="M70.762,29.226c-2.359-1.262-5.055-2.06-7.571-2.566c2.292-2.56,5.621-4.172,9.327-4.172
					c6.913,0,12.517,5.604,12.517,12.517c0,2.332-0.639,4.513-1.75,6.382C80.667,35.632,75.624,31.826,70.762,29.226z"/>
			</g>
			<path fill="#FFDD77" d="M85.058,49.302c-0.35-10.425-7.523-16.433-14.336-20.076c-6.813-3.644-16.429-3.429-16.429-3.429h0
				c0,0-9.616-0.214-16.429,3.429c-6.813,3.644-13.986,9.651-14.336,20.076c-0.355,10.574,5.281,16.399,7.883,18.455
				c4.163,3.218,9.832,4.904,14.952,5.311c4.402,0.478,7.93,0.472,7.93,0.472h0c0,0,3.528,0.006,7.93-0.472
				c5.12-0.407,10.789-2.093,14.952-5.311C79.777,65.701,85.413,59.876,85.058,49.302z"/>
		</g>
		<g>
			<path fill="#4D4D4F" d="M49.056,66.167c2.293,0,4.284-1.221,5.237-3.034c0.953,1.813,2.943,3.034,5.236,3.034
				c3.015,0,5.512-2.108,5.807-4.904l-1.142-0.121c-0.233,2.21-2.239,3.876-4.666,3.876c-2.418,0-4.418-1.656-4.662-3.855v-3.631
				c0.703-0.131,1.871-0.509,2.428-1.605c0,0,0.742-1.376,0.598-3.254h-3.6h-3.6c-0.144,1.878,0.598,3.254,0.598,3.254
				c0.558,1.096,1.725,1.474,2.428,1.605v3.631c-0.244,2.199-2.243,3.855-4.662,3.855c-2.427,0-4.432-1.666-4.665-3.876
				l-1.142,0.121C43.544,64.058,46.04,66.167,49.056,66.167z"/>
			<path fill="#4D4D4F" d="M85.919,49.273c-0.093-2.774-0.665-5.373-1.703-7.793c1.096-1.977,1.681-4.206,1.681-6.476
				c0-7.377-6.002-13.378-13.378-13.378c-3.637,0-7.12,1.493-9.637,4.108c-4.635-0.879-8.549-0.803-8.577-0.799
				c-0.028-0.001-0.137-0.002-0.317-0.002c-0.978,0-4.373,0.06-8.284,0.801c-2.516-2.614-5.999-4.108-9.636-4.108
				c-7.377,0-13.378,6.001-13.378,13.378c0,2.271,0.585,4.499,1.681,6.476c-1.038,2.42-1.61,5.019-1.703,7.793
				c-0.374,11.141,5.617,17.111,8.217,19.166c3.907,3.02,9.524,5.02,15.386,5.486c4.341,0.472,7.868,0.477,8.021,0.477h0.008
				c0.148,0,3.675-0.005,7.992-0.475c5.886-0.468,11.503-2.468,15.418-5.494C80.302,66.384,86.293,60.415,85.919,49.273z
				 M32.462,53.915c-0.708-0.542-2.161-1.852-2.979-5.311c0,0-0.346-1.584-0.906-5.299c-0.422-2.799,1.734-4.155,1.734-4.155
				c1.961-1.27,4.899-1.786,7.45-1.788c0.179,0,0.352,0.002,0.515,0.007c2.35,0.066,6.007,0.663,7.76,1.024
				c0,0,5.818,0.826,4.9,5.895c-0.327,1.804-2.377,6.721-4.489,8.631c-2.603,2.354-4.167,2.474-7.767,2.538l-0.231,0.002
				C35.192,55.458,33.023,54.344,32.462,53.915z M47.435,53.982c2.877-2.602,4.898-9.276,4.898-9.276s0.063-0.205,0.544-0.197
				c0.057,0.001,0.118,0.001,0.184,0.001c0.482-0.002,1.167-0.033,1.232-0.036c0.064,0.003,0.75,0.035,1.232,0.036
				c0.066,0,0.127,0,0.184-0.001c0.481-0.008,0.544,0.197,0.544,0.197s2.021,6.675,4.898,9.276c2.544,2.3,4.375,2.744,7.208,2.865
				c-1.009,7.205-7.282,12.733-14.64,12.733c-7.347,0-13.61-5.511-14.634-12.698C42.601,56.81,44.565,56.577,47.435,53.982z
				 M70.137,55.46l-0.231-0.002c-3.599-0.064-5.164-0.184-7.767-2.538c-2.112-1.911-4.162-6.827-4.489-8.631
				c-0.918-5.069,4.9-5.895,4.9-5.895c1.753-0.361,5.409-0.958,7.76-1.024c0.163-0.005,0.336-0.007,0.515-0.007
				c2.552,0.001,5.49,0.517,7.45,1.788c0,0,2.155,1.356,1.734,4.155c-0.56,3.715-0.906,5.299-0.906,5.299
				c-0.817,3.458-2.27,4.769-2.979,5.311C75.563,54.344,73.393,55.458,70.137,55.46z M72.518,23.349
				c6.427,0,11.656,5.229,11.656,11.656c0,0.98-0.137,1.948-0.378,2.888c-0.168-0.076-0.389-0.15-0.688-0.227
				c-0.028-0.009-0.052-0.02-0.082-0.029c-0.188-0.057-0.58-0.147-1.078-0.258c-2.452-3.421-6.009-6.36-10.781-8.912
				c-1.772-0.948-3.866-1.72-6.242-2.303C67.028,24.36,69.722,23.349,72.518,23.349z M54.312,26.657
				c0.006,0,0.105-0.002,0.286-0.002c1.585,0,9.792,0.16,15.719,3.33c3.736,1.998,6.69,4.251,8.907,6.777
				c-0.081-0.019-0.161-0.039-0.24-0.058c-1.46-0.359-5.607-0.782-8.222-0.773c-0.181,0-0.355,0.003-0.52,0.007
				c-2.554,0.072-6.381,0.718-8.008,1.053c-1.627,0.335-4.043,1.1-4.976,1.1s-2.965,0.013-2.965,0.013s-2.032-0.013-2.965-0.013
				s-3.349-0.766-4.976-1.1c-1.627-0.335-5.454-0.981-8.008-1.053c-0.165-0.005-0.339-0.007-0.52-0.007
				c-2.615-0.009-6.762,0.414-8.222,0.773c-0.079,0.019-0.16,0.039-0.24,0.058c2.217-2.525,5.172-4.779,8.907-6.777
				c5.927-3.17,14.134-3.33,15.719-3.33C54.169,26.655,54.268,26.657,54.312,26.657z M36.068,23.349c2.797,0,5.49,1.011,7.592,2.815
				c-2.376,0.583-4.47,1.355-6.242,2.303c-4.771,2.552-8.329,5.491-10.781,8.912c-0.498,0.111-0.89,0.202-1.078,0.258
				c-0.03,0.009-0.055,0.019-0.082,0.029c-0.298,0.077-0.52,0.151-0.687,0.227c-0.241-0.94-0.378-1.908-0.378-2.888
				C24.412,28.577,29.64,23.349,36.068,23.349z M76.649,67.076c-3.65,2.821-8.932,4.692-14.519,5.136
				c-4.25,0.462-7.687,0.467-7.831,0.467h-0.013c-0.144,0-3.581-0.005-7.855-0.47c-5.562-0.442-10.844-2.313-14.487-5.128
				c-2.387-1.887-7.904-7.394-7.556-17.751c0.078-2.331,0.516-4.506,1.295-6.546c0.252,0.354,0.474,0.659,0.594,0.88
				c0.455,0.837,0.646,1.364,1.579,5.311s2.895,5.454,3.708,6.077c0.71,0.543,2.791,1.587,5.778,1.8
				c1.023,8.158,8.082,14.45,16.377,14.45c8.283,0,15.335-6.274,16.374-14.415c3.601,0.014,6.132-1.226,6.929-1.836
				c0.813-0.622,2.775-2.129,3.708-6.077c0.933-3.947,1.124-4.474,1.579-5.311c0.12-0.221,0.342-0.526,0.594-0.88
				c0.779,2.039,1.217,4.215,1.295,6.546C84.545,59.687,79.029,65.195,76.649,67.076z"/>
		</g>
		<path fill="#FFF7E1" d="M50.963,44.289c-0.327,1.804-2.377,6.721-4.489,8.631c-2.603,2.354-4.167,2.474-7.767,2.538l-0.25,0.002
			c-3.262,0-5.434-1.115-5.995-1.545c-0.708-0.542-2.161-1.852-2.979-5.311c0,0-0.346-1.584-0.906-5.299
			c-0.422-2.799,1.734-4.155,1.734-4.155c1.963-1.272,4.906-1.788,7.46-1.788c0.186,0,0.365,0.002,0.533,0.007
			c2.35,0.066,6.007,0.663,7.76,1.024C46.063,38.394,51.881,39.219,50.963,44.289z M80.064,43.306
			c-0.56,3.715-0.906,5.299-0.906,5.299c-0.817,3.458-2.27,4.769-2.979,5.311c-0.562,0.43-2.734,1.545-5.995,1.545l-0.25-0.002
			c-3.599-0.064-5.164-0.184-7.767-2.538c-2.112-1.911-4.162-6.827-4.489-8.631c-0.918-5.069,4.9-5.895,4.9-5.895
			c1.753-0.361,5.409-0.958,7.76-1.024c0.168-0.005,0.347-0.007,0.533-0.007c2.554,0,5.497,0.516,7.46,1.788
			C78.33,39.151,80.485,40.506,80.064,43.306z"/>
	</g>
	<g>
		<g>
			<g opacity="0.2">
				<path d="M98.694,42.266l-6.512-9.995v-0.024h1.502l5.654,8.779l5.678-8.779h1.503v0.024l-6.536,9.995v6.68h-1.288V42.266z"/>
				<path d="M110.119,39.952h9.781v1.169h-9.781v6.584h10.544v1.24h-11.808V32.247h11.522v1.217h-10.258V39.952z"/>
				<path d="M124.788,32.247v15.483h9.399v1.216H123.5V32.247H124.788z"/>
				<path d="M137.907,32.247v15.483h9.399v1.216h-10.687V32.247H137.907z"/>
				<path d="M165.363,40.62c-0.024,4.39-2.815,8.612-8.421,8.612c-5.606,0-8.421-4.246-8.421-8.659c0-4.485,2.791-8.588,8.421-8.588
					C162.572,31.984,165.387,36.111,165.363,40.62z M149.786,40.596c0.024,3.769,2.409,7.442,7.156,7.442
					c4.771,0,7.181-3.674,7.181-7.442c0-3.865-2.386-7.419-7.181-7.419C152.147,33.177,149.762,36.66,149.786,40.596z"/>
				<path d="M177.981,32.247h0.716l5.105,15.267l5.177-15.267h1.384l-5.892,16.746h-1.384l-2.648-7.824l-2.099-6.609l-2.099,6.56
					l-2.672,7.872h-1.384l-5.845-16.746h1.36l5.153,15.267L177.981,32.247z"/>
			</g>
			<g>
				<g>
					<path fill="#FFDD77" d="M98.127,41.699l-6.512-9.995V31.68h1.502l5.654,8.779l5.678-8.779h1.503v0.024l-6.536,9.995v6.68
						h-1.288V41.699z"/>
					<path fill="#FFDD77" d="M109.552,39.385h9.781v1.169h-9.781v6.584h10.544v1.24h-11.808V31.68h11.522v1.217h-10.258V39.385z"/>
					<path fill="#FFDD77" d="M124.221,31.68v15.483h9.399v1.216h-10.687V31.68H124.221z"/>
					<path fill="#FFDD77" d="M137.34,31.68v15.483h9.399v1.216h-10.687V31.68H137.34z"/>
					<path fill="#FFDD77" d="M164.796,40.053c-0.024,4.39-2.815,8.612-8.421,8.612c-5.606,0-8.421-4.246-8.421-8.659
						c0-4.485,2.791-8.588,8.421-8.588C162.005,31.418,164.82,35.544,164.796,40.053z M149.219,40.03
						c0.024,3.769,2.409,7.442,7.156,7.442c4.771,0,7.181-3.674,7.181-7.442c0-3.865-2.386-7.419-7.181-7.419
						C151.58,32.61,149.195,36.093,149.219,40.03z"/>
					<path fill="#FFDD77" d="M177.414,31.68h0.716l5.105,15.267l5.177-15.267h1.384l-5.892,16.746h-1.384l-2.648-7.824l-2.099-6.609
						l-2.099,6.56l-2.672,7.872h-1.384l-5.845-16.746h1.36l5.153,15.267L177.414,31.68z"/>
				</g>
			</g>
		</g>
		<g>
			<path fill="#4D4D4F" d="M212.325,36.236c0,1.717-1.049,3.053-2.719,3.578c2.098,0.573,3.291,2.266,3.291,4.199
				c0,3.435-3.196,4.366-6.059,4.366c-2.433,0-4.413,0-6.846,0V31.68c2.409,0,4.413,0,6.846,0
				C209.654,31.68,212.325,33.064,212.325,36.236z M201.28,39.242h5.725c2.004,0,4.103-0.62,4.103-3.006
				c0-2.433-2.194-3.459-4.27-3.459h-5.558V39.242z M201.28,47.138h5.558c2.099,0,4.795-0.501,4.795-3.149
				c-0.024-2.6-2.386-3.531-4.628-3.531c-2.004,0-3.721,0-5.725,0V47.138z"/>
			<path fill="#4D4D4F" d="M217.237,39.385h9.781v1.169h-9.781v6.584h10.543v1.24h-11.808V31.68h11.522v1.217h-10.257V39.385z"/>
			<path fill="#4D4D4F" d="M243.905,48.378l-1.836-4.103h-9.972l-1.813,4.103H228.9l7.491-16.699h1.407l7.491,16.699H243.905z
				 M241.567,43.083l-4.484-10.163l-4.485,10.163H241.567z"/>
			<path fill="#4D4D4F" d="M260.745,48.378h-1.694l-5.773-6.321h-4.556v6.321h-1.288V31.68c2.457,0,4.89,0,7.347,0
				c3.626,0,5.462,2.6,5.487,5.2c0.023,2.72-1.765,5.105-5.416,5.105L260.745,48.378z M248.722,40.84h5.916
				c2.911,0,4.199-1.646,4.222-3.983c0.024-1.957-1.311-3.984-4.078-3.984h-6.059V40.84z"/>
		</g>
		<g display="none">
			<path display="inline" fill="#939598" d="M102.032,46.771c-1.143,1.143-2.628,1.692-4.114,1.692
				c-3.177,0-5.805-2.194-5.805-5.759c0-3.565,2.537-5.759,5.805-5.759c1.485,0,2.971,0.572,4.114,1.692l-0.731,0.709
				c-0.914-0.914-2.171-1.349-3.382-1.349c-2.559,0-4.708,1.668-4.708,4.708c0,3.04,2.148,4.708,4.708,4.708
				c1.211,0,2.445-0.48,3.36-1.395L102.032,46.771z"/>
			<path display="inline" fill="#939598" d="M104.621,42.726c0-3.587,2.56-5.873,5.737-5.873s5.736,2.286,5.736,5.873
				c0,3.588-2.559,5.783-5.736,5.783S104.621,46.314,104.621,42.726z M114.997,42.726c0-2.925-2.08-4.822-4.639-4.822
				c-2.56,0-4.639,1.897-4.639,4.822c0,2.925,2.079,4.686,4.639,4.686C112.917,47.412,114.997,45.651,114.997,42.726z"/>
			<path display="inline" fill="#939598" d="M136.007,48.349v-6.765c0-2.171-1.463-3.702-3.611-3.702s-3.634,1.6-3.634,3.771v6.696
				h-1.12v-6.696c0-2.171-1.485-3.748-3.633-3.748c-2.148,0-3.611,1.577-3.611,3.748v6.696h-1.12v-11.29h1.051l0.023,1.874
				c0.777-1.486,2.217-2.103,3.679-2.103c1.714,0,3.519,0.777,4.182,2.788c0.686-1.851,2.445-2.788,4.182-2.788
				c2.765,0,4.731,1.943,4.731,4.754v6.765H136.007z"/>
			<path display="inline" fill="#939598" d="M157.613,48.349v-6.765c0-2.171-1.463-3.702-3.611-3.702
				c-2.148,0-3.634,1.6-3.634,3.771v6.696h-1.12v-6.696c0-2.171-1.485-3.748-3.633-3.748c-2.148,0-3.611,1.577-3.611,3.748v6.696
				h-1.12v-11.29h1.051l0.023,1.874c0.777-1.486,2.217-2.103,3.679-2.103c1.714,0,3.519,0.777,4.182,2.788
				c0.686-1.851,2.445-2.788,4.182-2.788c2.765,0,4.731,1.943,4.731,4.754v6.765H157.613z"/>
			<path display="inline" fill="#939598" d="M171.105,48.349v-2.034c-0.868,1.555-2.445,2.194-4.022,2.217
				c-3.017,0-5.097-1.851-5.097-4.982v-6.514h1.12v6.491c0,2.559,1.577,3.931,4.022,3.908c2.331-0.022,3.954-1.783,3.954-4.113
				v-6.285h1.12v11.313H171.105z"/>
			<path display="inline" fill="#939598" d="M176.848,37.059v2.011c0.868-1.554,2.445-2.194,4.022-2.217
				c3.017,0,5.096,1.851,5.096,4.982v6.514h-1.12v-6.49c0-2.56-1.577-3.931-4.022-3.909c-2.331,0.023-3.954,1.783-3.954,4.114v6.284
				h-1.12v-11.29H176.848z"/>
			<path display="inline" fill="#939598" d="M190.98,33.379c0,1.188-1.805,1.188-1.805,0C189.174,32.19,190.98,32.19,190.98,33.379z
				 M189.494,37.013v11.335h1.12V37.013H189.494z"/>
			<path display="inline" fill="#939598" d="M203.668,46.771c-1.143,1.143-2.628,1.692-4.114,1.692
				c-3.177,0-5.805-2.194-5.805-5.759c0-3.565,2.537-5.759,5.805-5.759c1.485,0,2.971,0.572,4.114,1.692l-0.731,0.709
				c-0.914-0.914-2.171-1.349-3.382-1.349c-2.559,0-4.708,1.668-4.708,4.708c0,3.04,2.148,4.708,4.708,4.708
				c1.211,0,2.445-0.48,3.36-1.395L203.668,46.771z"/>
			<path display="inline" fill="#939598" d="M217.41,37.059c0,3.771,0,7.519,0,11.29h-1.12v-2.399
				c-1.097,1.76-2.788,2.582-4.616,2.582c-3.154,0-5.737-2.376-5.737-5.827c0-3.451,2.582-5.782,5.737-5.782
				c1.828,0,3.679,0.845,4.616,2.605v-2.468H217.41z M207.057,42.704c0,2.834,2.057,4.731,4.617,4.731c6.285,0,6.285-9.439,0-9.439
				C209.114,37.995,207.057,39.87,207.057,42.704z"/>
			<path display="inline" fill="#939598" d="M223.153,33.653v3.406h3.84v0.937h-3.84v6.879c0,1.532,0.32,2.605,2.08,2.605
				c0.548,0,1.166-0.182,1.736-0.457l0.389,0.914c-0.709,0.343-1.417,0.572-2.126,0.572c-2.4,0-3.177-1.417-3.177-3.634v-6.879h-2.4
				v-0.937h2.4v-3.291L223.153,33.653z"/>
			<path display="inline" fill="#939598" d="M231.66,33.379c0,1.188-1.806,1.188-1.806,0C229.854,32.19,231.66,32.19,231.66,33.379z
				 M230.174,37.013v11.335h1.12V37.013H230.174z"/>
			<path display="inline" fill="#939598" d="M234.819,42.726c0-3.587,2.56-5.873,5.737-5.873c3.177,0,5.736,2.286,5.736,5.873
				c0,3.588-2.559,5.783-5.736,5.783C237.379,48.509,234.819,46.314,234.819,42.726z M245.195,42.726
				c0-2.925-2.08-4.822-4.639-4.822s-4.639,1.897-4.639,4.822c0,2.925,2.08,4.686,4.639,4.686S245.195,45.651,245.195,42.726z"/>
			<path display="inline" fill="#939598" d="M250.573,37.059v2.011c0.869-1.554,2.446-2.194,4.023-2.217
				c3.017,0,5.097,1.851,5.097,4.982v6.514h-1.12v-6.49c0-2.56-1.577-3.931-4.023-3.909c-2.33,0.023-3.953,1.783-3.953,4.114v6.284
				h-1.12v-11.29H250.573z"/>
		</g>
	</g>
	<text transform="matrix(1 0 0 1 90.996 67.0296)" fill="#939598" font-family="'Sansumi-DemiBold'" font-size="19.3294">communication</text>
</g>
</svg>
